<mxfile host="Electron" agent="Mozilla/5.0 (Windows NT 10.0; Win64; x64) AppleWebKit/537.36 (KHTML, like Gecko) draw.io/24.7.5 Chrome/126.0.6478.183 Electron/31.3.0 Safari/537.36" version="24.7.5">
  <diagram name="Page-1" id="2YBvvXClWsGukQMizWep">
    <mxGraphModel dx="1038" dy="623" grid="1" gridSize="10" guides="1" tooltips="1" connect="1" arrows="1" fold="1" page="1" pageScale="1" pageWidth="1200" pageHeight="850" math="0" shadow="0">
      <root>
        <mxCell id="0" />
        <mxCell id="1" parent="0" />
        <mxCell id="DpNG2pSoOqjE--OXU2XV-1" value="&lt;h1 style=&quot;margin-top: 0px;&quot;&gt;Update Contact&lt;/h1&gt;" style="text;html=1;whiteSpace=wrap;overflow=hidden;rounded=0;align=center;fillColor=#fff2cc;strokeColor=#d6b656;" parent="1" vertex="1">
          <mxGeometry x="40" y="40" width="220" height="50" as="geometry" />
        </mxCell>
        <mxCell id="DpNG2pSoOqjE--OXU2XV-2" value="" style="shape=umlLifeline;perimeter=lifelinePerimeter;whiteSpace=wrap;html=1;container=1;dropTarget=0;collapsible=0;recursiveResize=0;outlineConnect=0;portConstraint=eastwest;newEdgeStyle={&quot;curved&quot;:0,&quot;rounded&quot;:0};participant=umlActor;" parent="1" vertex="1">
          <mxGeometry x="70" y="160" width="20" height="360" as="geometry" />
        </mxCell>
        <mxCell id="DpNG2pSoOqjE--OXU2XV-8" value="" style="html=1;points=[[0,0,0,0,5],[0,1,0,0,-5],[1,0,0,0,5],[1,1,0,0,-5]];perimeter=orthogonalPerimeter;outlineConnect=0;targetShapes=umlLifeline;portConstraint=eastwest;newEdgeStyle={&quot;curved&quot;:0,&quot;rounded&quot;:0};fillColor=#fff2cc;strokeColor=#d6b656;" parent="DpNG2pSoOqjE--OXU2XV-2" vertex="1">
          <mxGeometry x="5" y="50" width="10" height="310" as="geometry" />
        </mxCell>
        <mxCell id="DpNG2pSoOqjE--OXU2XV-3" value="" style="shape=umlLifeline;perimeter=lifelinePerimeter;whiteSpace=wrap;html=1;container=1;dropTarget=0;collapsible=0;recursiveResize=0;outlineConnect=0;portConstraint=eastwest;newEdgeStyle={&quot;curved&quot;:0,&quot;rounded&quot;:0};participant=umlActor;" parent="1" vertex="1">
          <mxGeometry x="1110" y="160" width="20" height="360" as="geometry" />
        </mxCell>
        <mxCell id="DpNG2pSoOqjE--OXU2XV-12" value="" style="html=1;points=[[0,0,0,0,5],[0,1,0,0,-5],[1,0,0,0,5],[1,1,0,0,-5]];perimeter=orthogonalPerimeter;outlineConnect=0;targetShapes=umlLifeline;portConstraint=eastwest;newEdgeStyle={&quot;curved&quot;:0,&quot;rounded&quot;:0};fillColor=#fff2cc;strokeColor=#d6b656;" parent="DpNG2pSoOqjE--OXU2XV-3" vertex="1">
          <mxGeometry x="5" y="50" width="10" height="310" as="geometry" />
        </mxCell>
        <mxCell id="DpNG2pSoOqjE--OXU2XV-4" value=":ContactView" style="shape=umlLifeline;perimeter=lifelinePerimeter;whiteSpace=wrap;html=1;container=1;dropTarget=0;collapsible=0;recursiveResize=0;outlineConnect=0;portConstraint=eastwest;newEdgeStyle={&quot;curved&quot;:0,&quot;rounded&quot;:0};fillColor=#ffe6cc;strokeColor=#d79b00;" parent="1" vertex="1">
          <mxGeometry x="260" y="160" width="100" height="360" as="geometry" />
        </mxCell>
        <mxCell id="DpNG2pSoOqjE--OXU2XV-16" value="" style="html=1;points=[[0,0,0,0,5],[0,1,0,0,-5],[1,0,0,0,5],[1,1,0,0,-5]];perimeter=orthogonalPerimeter;outlineConnect=0;targetShapes=umlLifeline;portConstraint=eastwest;newEdgeStyle={&quot;curved&quot;:0,&quot;rounded&quot;:0};fillColor=#ffe6cc;strokeColor=#d79b00;" parent="DpNG2pSoOqjE--OXU2XV-4" vertex="1">
          <mxGeometry x="45" y="100" width="10" height="50" as="geometry" />
        </mxCell>
        <mxCell id="DpNG2pSoOqjE--OXU2XV-44" value="" style="html=1;points=[[0,0,0,0,5],[0,1,0,0,-5],[1,0,0,0,5],[1,1,0,0,-5]];perimeter=orthogonalPerimeter;outlineConnect=0;targetShapes=umlLifeline;portConstraint=eastwest;newEdgeStyle={&quot;curved&quot;:0,&quot;rounded&quot;:0};fillColor=#ffe6cc;strokeColor=#d79b00;" parent="DpNG2pSoOqjE--OXU2XV-4" vertex="1">
          <mxGeometry x="45" y="260" width="10" height="100" as="geometry" />
        </mxCell>
        <mxCell id="DpNG2pSoOqjE--OXU2XV-5" value=":ContactController" style="shape=umlLifeline;perimeter=lifelinePerimeter;whiteSpace=wrap;html=1;container=1;dropTarget=0;collapsible=0;recursiveResize=0;outlineConnect=0;portConstraint=eastwest;newEdgeStyle={&quot;curved&quot;:0,&quot;rounded&quot;:0};fillColor=#e1d5e7;strokeColor=#9673a6;" parent="1" vertex="1">
          <mxGeometry x="460" y="160" width="140" height="360" as="geometry" />
        </mxCell>
        <mxCell id="DpNG2pSoOqjE--OXU2XV-9" value="" style="html=1;points=[[0,0,0,0,5],[0,1,0,0,-5],[1,0,0,0,5],[1,1,0,0,-5]];perimeter=orthogonalPerimeter;outlineConnect=0;targetShapes=umlLifeline;portConstraint=eastwest;newEdgeStyle={&quot;curved&quot;:0,&quot;rounded&quot;:0};fillColor=#e1d5e7;strokeColor=#9673a6;" parent="DpNG2pSoOqjE--OXU2XV-5" vertex="1">
          <mxGeometry x="65" y="50" width="10" height="310" as="geometry" />
        </mxCell>
        <mxCell id="DpNG2pSoOqjE--OXU2XV-6" value=":Contact" style="shape=umlLifeline;perimeter=lifelinePerimeter;whiteSpace=wrap;html=1;container=1;dropTarget=0;collapsible=0;recursiveResize=0;outlineConnect=0;portConstraint=eastwest;newEdgeStyle={&quot;curved&quot;:0,&quot;rounded&quot;:0};fillColor=#f8cecc;strokeColor=#b85450;" parent="1" vertex="1">
          <mxGeometry x="680" y="160" width="100" height="360" as="geometry" />
        </mxCell>
        <mxCell id="DpNG2pSoOqjE--OXU2XV-10" value="" style="html=1;points=[[0,0,0,0,5],[0,1,0,0,-5],[1,0,0,0,5],[1,1,0,0,-5]];perimeter=orthogonalPerimeter;outlineConnect=0;targetShapes=umlLifeline;portConstraint=eastwest;newEdgeStyle={&quot;curved&quot;:0,&quot;rounded&quot;:0};fillColor=#f8cecc;strokeColor=#b85450;" parent="DpNG2pSoOqjE--OXU2XV-6" vertex="1">
          <mxGeometry x="45" y="50" width="10" height="310" as="geometry" />
        </mxCell>
        <mxCell id="DpNG2pSoOqjE--OXU2XV-7" value=":ContactRepo" style="shape=umlLifeline;perimeter=lifelinePerimeter;whiteSpace=wrap;html=1;container=1;dropTarget=0;collapsible=0;recursiveResize=0;outlineConnect=0;portConstraint=eastwest;newEdgeStyle={&quot;curved&quot;:0,&quot;rounded&quot;:0};fillColor=#dae8fc;strokeColor=#6c8ebf;" parent="1" vertex="1">
          <mxGeometry x="890" y="160" width="100" height="360" as="geometry" />
        </mxCell>
        <mxCell id="DpNG2pSoOqjE--OXU2XV-11" value="" style="html=1;points=[[0,0,0,0,5],[0,1,0,0,-5],[1,0,0,0,5],[1,1,0,0,-5]];perimeter=orthogonalPerimeter;outlineConnect=0;targetShapes=umlLifeline;portConstraint=eastwest;newEdgeStyle={&quot;curved&quot;:0,&quot;rounded&quot;:0};fillColor=#dae8fc;strokeColor=#6c8ebf;" parent="DpNG2pSoOqjE--OXU2XV-7" vertex="1">
          <mxGeometry x="45" y="50" width="10" height="310" as="geometry" />
        </mxCell>
        <mxCell id="DpNG2pSoOqjE--OXU2XV-14" value="Press Update Contact Link" style="html=1;verticalAlign=bottom;startArrow=oval;startFill=1;endArrow=block;startSize=8;curved=0;rounded=0;" parent="1" target="DpNG2pSoOqjE--OXU2XV-9" edge="1">
          <mxGeometry width="60" relative="1" as="geometry">
            <mxPoint x="90" y="240" as="sourcePoint" />
            <mxPoint x="520" y="240" as="targetPoint" />
          </mxGeometry>
        </mxCell>
        <mxCell id="DpNG2pSoOqjE--OXU2XV-15" value="renderContactForm($contactData)" style="html=1;verticalAlign=bottom;endArrow=block;curved=0;rounded=0;" parent="1" source="DpNG2pSoOqjE--OXU2XV-9" edge="1">
          <mxGeometry width="80" relative="1" as="geometry">
            <mxPoint x="520" y="280" as="sourcePoint" />
            <mxPoint x="315" y="280" as="targetPoint" />
          </mxGeometry>
        </mxCell>
        <mxCell id="DpNG2pSoOqjE--OXU2XV-19" value="getContactDataFromDb($id)" style="html=1;verticalAlign=bottom;endArrow=block;curved=0;rounded=0;" parent="1" edge="1">
          <mxGeometry width="80" relative="1" as="geometry">
            <mxPoint x="535" y="240" as="sourcePoint" />
            <mxPoint x="725.0000000000001" y="240" as="targetPoint" />
          </mxGeometry>
        </mxCell>
        <mxCell id="DpNG2pSoOqjE--OXU2XV-20" value="fetchContact($id)" style="html=1;verticalAlign=bottom;endArrow=block;curved=0;rounded=0;" parent="1" target="DpNG2pSoOqjE--OXU2XV-11" edge="1">
          <mxGeometry width="80" relative="1" as="geometry">
            <mxPoint x="735" y="240" as="sourcePoint" />
            <mxPoint x="930" y="240" as="targetPoint" />
          </mxGeometry>
        </mxCell>
        <mxCell id="DpNG2pSoOqjE--OXU2XV-21" value="read($sql)" style="html=1;verticalAlign=bottom;endArrow=block;curved=0;rounded=0;" parent="1" target="DpNG2pSoOqjE--OXU2XV-12" edge="1">
          <mxGeometry width="80" relative="1" as="geometry">
            <mxPoint x="945" y="240" as="sourcePoint" />
            <mxPoint x="1100" y="240" as="targetPoint" />
          </mxGeometry>
        </mxCell>
        <mxCell id="DpNG2pSoOqjE--OXU2XV-22" value="$data" style="html=1;verticalAlign=bottom;endArrow=open;dashed=1;endSize=8;curved=0;rounded=0;" parent="1" source="DpNG2pSoOqjE--OXU2XV-12" edge="1">
          <mxGeometry relative="1" as="geometry">
            <mxPoint x="1100" y="280" as="sourcePoint" />
            <mxPoint x="945" y="280" as="targetPoint" />
          </mxGeometry>
        </mxCell>
        <mxCell id="DpNG2pSoOqjE--OXU2XV-24" value="$data" style="html=1;verticalAlign=bottom;endArrow=open;dashed=1;endSize=8;curved=0;rounded=0;" parent="1" source="DpNG2pSoOqjE--OXU2XV-11" edge="1">
          <mxGeometry relative="1" as="geometry">
            <mxPoint x="929.5000000000002" y="280" as="sourcePoint" />
            <mxPoint x="735.0000000000001" y="280" as="targetPoint" />
          </mxGeometry>
        </mxCell>
        <mxCell id="DpNG2pSoOqjE--OXU2XV-25" value="$data" style="html=1;verticalAlign=bottom;endArrow=open;dashed=1;endSize=8;curved=0;rounded=0;" parent="1" edge="1">
          <mxGeometry relative="1" as="geometry">
            <mxPoint x="725.0000000000001" y="280" as="sourcePoint" />
            <mxPoint x="535" y="280" as="targetPoint" />
          </mxGeometry>
        </mxCell>
        <mxCell id="DpNG2pSoOqjE--OXU2XV-26" value="displayContactForm($contactData)" style="html=1;verticalAlign=bottom;endArrow=block;curved=0;rounded=0;" parent="1" source="DpNG2pSoOqjE--OXU2XV-16" edge="1">
          <mxGeometry width="80" relative="1" as="geometry">
            <mxPoint x="300" y="280" as="sourcePoint" />
            <mxPoint x="85" y="280" as="targetPoint" />
          </mxGeometry>
        </mxCell>
        <mxCell id="DpNG2pSoOqjE--OXU2XV-27" value="Submit Contact Update" style="html=1;verticalAlign=bottom;startArrow=oval;startFill=1;endArrow=block;startSize=8;curved=0;rounded=0;" parent="1" target="DpNG2pSoOqjE--OXU2XV-9" edge="1">
          <mxGeometry width="60" relative="1" as="geometry">
            <mxPoint x="90" y="360" as="sourcePoint" />
            <mxPoint x="520" y="360" as="targetPoint" />
          </mxGeometry>
        </mxCell>
        <mxCell id="DpNG2pSoOqjE--OXU2XV-34" value="" style="html=1;points=[[0,0,0,0,5],[0,1,0,0,-5],[1,0,0,0,5],[1,1,0,0,-5]];perimeter=orthogonalPerimeter;outlineConnect=0;targetShapes=umlLifeline;portConstraint=eastwest;newEdgeStyle={&quot;curved&quot;:0,&quot;rounded&quot;:0};fillColor=#e1d5e7;strokeColor=#9673a6;" parent="1" vertex="1">
          <mxGeometry x="525" y="379" width="10" height="40" as="geometry" />
        </mxCell>
        <mxCell id="DpNG2pSoOqjE--OXU2XV-35" value="getContactDataFromPost()" style="html=1;align=left;spacingLeft=2;endArrow=block;rounded=0;edgeStyle=orthogonalEdgeStyle;curved=0;rounded=0;" parent="1" source="DpNG2pSoOqjE--OXU2XV-9" target="DpNG2pSoOqjE--OXU2XV-34" edge="1">
          <mxGeometry relative="1" as="geometry">
            <mxPoint x="540" y="359" as="sourcePoint" />
            <Array as="points">
              <mxPoint x="560" y="360" />
              <mxPoint x="560" y="399" />
            </Array>
          </mxGeometry>
        </mxCell>
        <mxCell id="DpNG2pSoOqjE--OXU2XV-36" value="submitContactForm($contacData)" style="html=1;verticalAlign=bottom;endArrow=block;curved=0;rounded=0;" parent="1" target="DpNG2pSoOqjE--OXU2XV-10" edge="1">
          <mxGeometry width="80" relative="1" as="geometry">
            <mxPoint x="535" y="419" as="sourcePoint" />
            <mxPoint x="729.5" y="419" as="targetPoint" />
          </mxGeometry>
        </mxCell>
        <mxCell id="DpNG2pSoOqjE--OXU2XV-37" value="processContactForm($contactData)" style="html=1;verticalAlign=bottom;endArrow=block;curved=0;rounded=0;" parent="1" target="DpNG2pSoOqjE--OXU2XV-11" edge="1">
          <mxGeometry width="80" relative="1" as="geometry">
            <mxPoint x="735.0000000000001" y="418" as="sourcePoint" />
            <mxPoint x="925" y="418" as="targetPoint" />
          </mxGeometry>
        </mxCell>
        <mxCell id="DpNG2pSoOqjE--OXU2XV-39" value="update($sql)" style="html=1;verticalAlign=bottom;endArrow=block;curved=0;rounded=0;" parent="1" target="DpNG2pSoOqjE--OXU2XV-12" edge="1">
          <mxGeometry width="80" relative="1" as="geometry">
            <mxPoint x="945" y="418" as="sourcePoint" />
            <mxPoint x="1100" y="418" as="targetPoint" />
          </mxGeometry>
        </mxCell>
        <mxCell id="DpNG2pSoOqjE--OXU2XV-40" value="$result" style="html=1;verticalAlign=bottom;endArrow=open;dashed=1;endSize=8;curved=0;rounded=0;" parent="1" edge="1">
          <mxGeometry relative="1" as="geometry">
            <mxPoint x="1115" y="460" as="sourcePoint" />
            <mxPoint x="945" y="460" as="targetPoint" />
          </mxGeometry>
        </mxCell>
        <mxCell id="DpNG2pSoOqjE--OXU2XV-41" value="$result" style="html=1;verticalAlign=bottom;endArrow=open;dashed=1;endSize=8;curved=0;rounded=0;" parent="1" source="DpNG2pSoOqjE--OXU2XV-11" edge="1">
          <mxGeometry relative="1" as="geometry">
            <mxPoint x="925" y="460" as="sourcePoint" />
            <mxPoint x="735.0000000000001" y="460" as="targetPoint" />
          </mxGeometry>
        </mxCell>
        <mxCell id="DpNG2pSoOqjE--OXU2XV-42" value="$result" style="html=1;verticalAlign=bottom;endArrow=open;dashed=1;endSize=8;curved=0;rounded=0;" parent="1" edge="1">
          <mxGeometry relative="1" as="geometry">
            <mxPoint x="725.0000000000001" y="460" as="sourcePoint" />
            <mxPoint x="535" y="460" as="targetPoint" />
          </mxGeometry>
        </mxCell>
        <mxCell id="DpNG2pSoOqjE--OXU2XV-43" value="renderResult($result)" style="html=1;verticalAlign=bottom;endArrow=block;curved=0;rounded=0;" parent="1" edge="1">
          <mxGeometry width="80" relative="1" as="geometry">
            <mxPoint x="525" y="460" as="sourcePoint" />
            <mxPoint x="315" y="460" as="targetPoint" />
          </mxGeometry>
        </mxCell>
        <mxCell id="DpNG2pSoOqjE--OXU2XV-45" value="displayResult($result)" style="html=1;verticalAlign=bottom;endArrow=block;curved=0;rounded=0;" parent="1" edge="1">
          <mxGeometry width="80" relative="1" as="geometry">
            <mxPoint x="305" y="460" as="sourcePoint" />
            <mxPoint x="85" y="460" as="targetPoint" />
          </mxGeometry>
        </mxCell>
        <mxCell id="DpNG2pSoOqjE--OXU2XV-46" value="Client" style="text;align=center;fontStyle=1;verticalAlign=middle;spacingLeft=3;spacingRight=3;strokeColor=none;rotatable=0;points=[[0,0.5],[1,0.5]];portConstraint=eastwest;html=1;" parent="1" vertex="1">
          <mxGeometry x="40" y="130" width="80" height="26" as="geometry" />
        </mxCell>
        <mxCell id="DpNG2pSoOqjE--OXU2XV-47" value="DB" style="text;align=center;fontStyle=1;verticalAlign=middle;spacingLeft=3;spacingRight=3;strokeColor=none;rotatable=0;points=[[0,0.5],[1,0.5]];portConstraint=eastwest;html=1;" parent="1" vertex="1">
          <mxGeometry x="1080" y="130" width="80" height="26" as="geometry" />
        </mxCell>
      </root>
    </mxGraphModel>
  </diagram>
</mxfile>
